<mxfile host="app.diagrams.net" modified="2023-07-05T21:19:44.547Z" agent="Mozilla/5.0 (Windows NT 10.0; Win64; x64) AppleWebKit/537.36 (KHTML, like Gecko) Chrome/114.0.0.0 Safari/537.36 Edg/114.0.1823.67" etag="7k5-WC_mR1ZWZybVEMP1" version="21.6.1" type="github">
  <diagram id="C5RBs43oDa-KdzZeNtuy" name="Page-1">
    <mxGraphModel dx="4076" dy="2269" grid="1" gridSize="10" guides="1" tooltips="1" connect="1" arrows="1" fold="1" page="1" pageScale="1" pageWidth="827" pageHeight="1169" math="0" shadow="0">
      <root>
        <mxCell id="WIyWlLk6GJQsqaUBKTNV-0" />
        <mxCell id="WIyWlLk6GJQsqaUBKTNV-1" parent="WIyWlLk6GJQsqaUBKTNV-0" />
        <mxCell id="WIyWlLk6GJQsqaUBKTNV-2" value="" style="rounded=0;html=1;jettySize=auto;orthogonalLoop=1;fontSize=11;endArrow=block;endFill=0;endSize=8;strokeWidth=1;shadow=0;labelBackgroundColor=none;edgeStyle=orthogonalEdgeStyle;noEdgeStyle=1;orthogonal=1;" parent="WIyWlLk6GJQsqaUBKTNV-1" source="WIyWlLk6GJQsqaUBKTNV-3" target="WIyWlLk6GJQsqaUBKTNV-6" edge="1">
          <mxGeometry relative="1" as="geometry" />
        </mxCell>
        <mxCell id="WIyWlLk6GJQsqaUBKTNV-3" value="Resolving image reference" style="rounded=1;whiteSpace=wrap;html=1;fontSize=12;glass=0;strokeWidth=1;shadow=0;" parent="WIyWlLk6GJQsqaUBKTNV-1" vertex="1">
          <mxGeometry x="70" y="40.00185185185185" width="120" height="40" as="geometry" />
        </mxCell>
        <mxCell id="budjNbjbFSjOa-AknYmb-16" value="" style="edgeStyle=orthogonalEdgeStyle;rounded=0;orthogonalLoop=1;jettySize=auto;html=1;" edge="1" parent="WIyWlLk6GJQsqaUBKTNV-1" source="WIyWlLk6GJQsqaUBKTNV-6" target="WIyWlLk6GJQsqaUBKTNV-7">
          <mxGeometry relative="1" as="geometry" />
        </mxCell>
        <mxCell id="budjNbjbFSjOa-AknYmb-17" value="No" style="edgeLabel;html=1;align=center;verticalAlign=middle;resizable=0;points=[];" vertex="1" connectable="0" parent="budjNbjbFSjOa-AknYmb-16">
          <mxGeometry x="-0.1204" relative="1" as="geometry">
            <mxPoint as="offset" />
          </mxGeometry>
        </mxCell>
        <mxCell id="budjNbjbFSjOa-AknYmb-18" value="" style="edgeStyle=orthogonalEdgeStyle;rounded=0;orthogonalLoop=1;jettySize=auto;html=1;" edge="1" parent="WIyWlLk6GJQsqaUBKTNV-1" source="WIyWlLk6GJQsqaUBKTNV-6" target="WIyWlLk6GJQsqaUBKTNV-10">
          <mxGeometry relative="1" as="geometry">
            <Array as="points">
              <mxPoint x="130" y="220" />
              <mxPoint x="130" y="220" />
            </Array>
          </mxGeometry>
        </mxCell>
        <mxCell id="budjNbjbFSjOa-AknYmb-19" value="Yes" style="edgeLabel;html=1;align=center;verticalAlign=middle;resizable=0;points=[];" vertex="1" connectable="0" parent="budjNbjbFSjOa-AknYmb-18">
          <mxGeometry x="-0.1678" y="-1" relative="1" as="geometry">
            <mxPoint as="offset" />
          </mxGeometry>
        </mxCell>
        <mxCell id="WIyWlLk6GJQsqaUBKTNV-6" value="Does the reference have a host?" style="rhombus;whiteSpace=wrap;html=1;shadow=0;fontFamily=Helvetica;fontSize=12;align=center;strokeWidth=1;spacing=6;spacingTop=-4;" parent="WIyWlLk6GJQsqaUBKTNV-1" vertex="1">
          <mxGeometry x="80" y="130.00185185185185" width="100" height="80" as="geometry" />
        </mxCell>
        <mxCell id="WIyWlLk6GJQsqaUBKTNV-7" value="Check locally tagged images/public sources" style="rounded=1;whiteSpace=wrap;html=1;fontSize=12;glass=0;strokeWidth=1;shadow=0;" parent="WIyWlLk6GJQsqaUBKTNV-1" vertex="1">
          <mxGeometry x="300" y="150.00185185185197" width="120" height="40" as="geometry" />
        </mxCell>
        <mxCell id="budjNbjbFSjOa-AknYmb-12" value="" style="edgeStyle=orthogonalEdgeStyle;rounded=0;orthogonalLoop=1;jettySize=auto;html=1;" edge="1" parent="WIyWlLk6GJQsqaUBKTNV-1" source="WIyWlLk6GJQsqaUBKTNV-10" target="budjNbjbFSjOa-AknYmb-1">
          <mxGeometry relative="1" as="geometry" />
        </mxCell>
        <mxCell id="budjNbjbFSjOa-AknYmb-13" value="No" style="edgeLabel;html=1;align=center;verticalAlign=middle;resizable=0;points=[];" vertex="1" connectable="0" parent="budjNbjbFSjOa-AknYmb-12">
          <mxGeometry x="-0.1567" relative="1" as="geometry">
            <mxPoint as="offset" />
          </mxGeometry>
        </mxCell>
        <mxCell id="budjNbjbFSjOa-AknYmb-14" value="" style="edgeStyle=orthogonalEdgeStyle;rounded=0;orthogonalLoop=1;jettySize=auto;html=1;" edge="1" parent="WIyWlLk6GJQsqaUBKTNV-1" source="WIyWlLk6GJQsqaUBKTNV-10" target="WIyWlLk6GJQsqaUBKTNV-12">
          <mxGeometry relative="1" as="geometry" />
        </mxCell>
        <mxCell id="budjNbjbFSjOa-AknYmb-15" value="Yes" style="edgeLabel;html=1;align=center;verticalAlign=middle;resizable=0;points=[];" vertex="1" connectable="0" parent="budjNbjbFSjOa-AknYmb-14">
          <mxGeometry x="-0.0622" y="2" relative="1" as="geometry">
            <mxPoint as="offset" />
          </mxGeometry>
        </mxCell>
        <mxCell id="WIyWlLk6GJQsqaUBKTNV-10" value="Does the host have a hosts.toml?&lt;br&gt;" style="rhombus;whiteSpace=wrap;html=1;shadow=0;fontFamily=Helvetica;fontSize=12;align=center;strokeWidth=1;spacing=6;spacingTop=-4;" parent="WIyWlLk6GJQsqaUBKTNV-1" vertex="1">
          <mxGeometry x="40" y="250.00185185185182" width="180" height="140" as="geometry" />
        </mxCell>
        <mxCell id="WIyWlLk6GJQsqaUBKTNV-12" value="Direct request to hosts in file" style="rounded=1;whiteSpace=wrap;html=1;fontSize=12;glass=0;strokeWidth=1;shadow=0;" parent="WIyWlLk6GJQsqaUBKTNV-1" vertex="1">
          <mxGeometry x="300" y="300.0018518518518" width="120" height="40" as="geometry" />
        </mxCell>
        <mxCell id="budjNbjbFSjOa-AknYmb-6" value="" style="edgeStyle=orthogonalEdgeStyle;rounded=0;orthogonalLoop=1;jettySize=auto;html=1;" edge="1" parent="WIyWlLk6GJQsqaUBKTNV-1" source="budjNbjbFSjOa-AknYmb-1" target="budjNbjbFSjOa-AknYmb-5">
          <mxGeometry relative="1" as="geometry" />
        </mxCell>
        <mxCell id="budjNbjbFSjOa-AknYmb-10" value="Yes&lt;br&gt;" style="edgeLabel;html=1;align=center;verticalAlign=middle;resizable=0;points=[];" vertex="1" connectable="0" parent="budjNbjbFSjOa-AknYmb-6">
          <mxGeometry x="-0.1667" y="1" relative="1" as="geometry">
            <mxPoint as="offset" />
          </mxGeometry>
        </mxCell>
        <object label="" No="" id="budjNbjbFSjOa-AknYmb-8">
          <mxCell style="edgeStyle=orthogonalEdgeStyle;rounded=0;orthogonalLoop=1;jettySize=auto;html=1;" edge="1" parent="WIyWlLk6GJQsqaUBKTNV-1" source="budjNbjbFSjOa-AknYmb-1" target="budjNbjbFSjOa-AknYmb-7">
            <mxGeometry relative="1" as="geometry" />
          </mxCell>
        </object>
        <mxCell id="budjNbjbFSjOa-AknYmb-11" value="No" style="edgeLabel;html=1;align=center;verticalAlign=middle;resizable=0;points=[];" vertex="1" connectable="0" parent="budjNbjbFSjOa-AknYmb-8">
          <mxGeometry x="-0.3627" relative="1" as="geometry">
            <mxPoint as="offset" />
          </mxGeometry>
        </mxCell>
        <mxCell id="budjNbjbFSjOa-AknYmb-1" value="&lt;font style=&quot;font-size: 12px;&quot;&gt;Is there a _default/hosts.toml file?&lt;/font&gt;" style="strokeWidth=2;html=1;shape=mxgraph.flowchart.decision;whiteSpace=wrap;" vertex="1" parent="WIyWlLk6GJQsqaUBKTNV-1">
          <mxGeometry x="30" y="440.15" width="200" height="150" as="geometry" />
        </mxCell>
        <mxCell id="budjNbjbFSjOa-AknYmb-5" value="Direct request to default host in file" style="rounded=1;whiteSpace=wrap;html=1;strokeWidth=2;" vertex="1" parent="WIyWlLk6GJQsqaUBKTNV-1">
          <mxGeometry x="300" y="485.15" width="120" height="60" as="geometry" />
        </mxCell>
        <mxCell id="budjNbjbFSjOa-AknYmb-7" value="Send the request to host in image reference" style="whiteSpace=wrap;html=1;strokeWidth=2;" vertex="1" parent="WIyWlLk6GJQsqaUBKTNV-1">
          <mxGeometry x="70" y="640.15" width="120" height="60" as="geometry" />
        </mxCell>
        <mxCell id="budjNbjbFSjOa-AknYmb-22" value="&lt;h1&gt;Registry Request Redirection Flowchart&lt;/h1&gt;&lt;p&gt;This flowchart depicts a summary of how a request to a registry is redirected when a containerd based client uses the `--hosts-dir` argument to pass in a directory of `hosts.toml` files, which configures the registry client when sending requests.&lt;/p&gt;" style="text;html=1;strokeColor=none;fillColor=none;spacing=5;spacingTop=-20;whiteSpace=wrap;overflow=hidden;rounded=0;" vertex="1" parent="WIyWlLk6GJQsqaUBKTNV-1">
          <mxGeometry x="530" y="10" width="250" height="250" as="geometry" />
        </mxCell>
        <mxCell id="budjNbjbFSjOa-AknYmb-23" value="ex. example.azurecr.io/hello-world:latest" style="text;html=1;strokeColor=none;fillColor=none;align=left;verticalAlign=middle;whiteSpace=wrap;rounded=0;fontSize=10;" vertex="1" parent="WIyWlLk6GJQsqaUBKTNV-1">
          <mxGeometry x="200" y="32.5" width="230" height="55" as="geometry" />
        </mxCell>
        <mxCell id="budjNbjbFSjOa-AknYmb-24" value="&lt;font style=&quot;font-size: 10px;&quot;&gt;Checks docker.io, quay.io, etc&lt;/font&gt;" style="text;html=1;strokeColor=none;fillColor=none;align=center;verticalAlign=middle;whiteSpace=wrap;rounded=0;" vertex="1" parent="WIyWlLk6GJQsqaUBKTNV-1">
          <mxGeometry x="295" y="200" width="130" height="30" as="geometry" />
        </mxCell>
        <mxCell id="budjNbjbFSjOa-AknYmb-25" value="&lt;h1&gt;&lt;font style=&quot;font-size: 13px;&quot;&gt;hosts.toml&lt;/font&gt;&lt;/h1&gt;&lt;p&gt;&lt;font style=&quot;font-size: 10px;&quot;&gt;The hosts.toml file has settings for configuring the subsequent request. A single file can specify multiple hosts to try, and specify other settings such as tls, additional headers to append, and the scope of requests to redirect.&lt;/font&gt;&lt;/p&gt;" style="text;html=1;strokeColor=none;fillColor=none;spacing=5;spacingTop=-20;whiteSpace=wrap;overflow=hidden;rounded=0;" vertex="1" parent="WIyWlLk6GJQsqaUBKTNV-1">
          <mxGeometry x="440" y="260" width="190" height="150" as="geometry" />
        </mxCell>
        <mxCell id="budjNbjbFSjOa-AknYmb-26" value="&lt;h1&gt;&lt;span style=&quot;font-size: 13px;&quot;&gt;_default/hosts.toml&lt;/span&gt;&lt;/h1&gt;&lt;p&gt;&lt;font style=&quot;font-size: 10px;&quot;&gt;If such a file exists, it acts as the catch all in case any of the previous hosts fail or do not exist.&lt;/font&gt;&lt;/p&gt;" style="text;html=1;strokeColor=none;fillColor=none;spacing=5;spacingTop=-20;whiteSpace=wrap;overflow=hidden;rounded=0;" vertex="1" parent="WIyWlLk6GJQsqaUBKTNV-1">
          <mxGeometry x="440" y="460.22999999999996" width="190" height="109.85" as="geometry" />
        </mxCell>
      </root>
    </mxGraphModel>
  </diagram>
</mxfile>
